<mxfile host="app.diagrams.net" modified="2022-04-20T18:21:59.804Z" agent="5.0 (Windows NT 10.0; Win64; x64) AppleWebKit/537.36 (KHTML, like Gecko) Chrome/100.0.4896.127 Safari/537.36" etag="vpmPkrWVnLg8mGlo8310" version="16.0.0" type="github">
  <diagram id="R2lEEEUBdFMjLlhIrx00" name="Page-1">
    <mxGraphModel dx="1422" dy="836" grid="1" gridSize="10" guides="1" tooltips="1" connect="1" arrows="1" fold="1" page="1" pageScale="1" pageWidth="850" pageHeight="1100" math="0" shadow="0" extFonts="Permanent Marker^https://fonts.googleapis.com/css?family=Permanent+Marker">
      <root>
        <mxCell id="0" />
        <mxCell id="1" parent="0" />
        <mxCell id="s3QYRCO0sytGGgx9mS0I-49" style="edgeStyle=orthogonalEdgeStyle;rounded=0;orthogonalLoop=1;jettySize=auto;html=1;" edge="1" parent="1" source="s3QYRCO0sytGGgx9mS0I-1" target="s3QYRCO0sytGGgx9mS0I-3">
          <mxGeometry relative="1" as="geometry">
            <Array as="points">
              <mxPoint x="403" y="190" />
              <mxPoint x="403" y="190" />
            </Array>
          </mxGeometry>
        </mxCell>
        <mxCell id="s3QYRCO0sytGGgx9mS0I-50" style="edgeStyle=orthogonalEdgeStyle;rounded=0;orthogonalLoop=1;jettySize=auto;html=1;" edge="1" parent="1" source="s3QYRCO0sytGGgx9mS0I-1" target="s3QYRCO0sytGGgx9mS0I-10">
          <mxGeometry relative="1" as="geometry" />
        </mxCell>
        <mxCell id="s3QYRCO0sytGGgx9mS0I-51" style="edgeStyle=orthogonalEdgeStyle;rounded=0;orthogonalLoop=1;jettySize=auto;html=1;entryX=0.5;entryY=0;entryDx=0;entryDy=0;" edge="1" parent="1" source="s3QYRCO0sytGGgx9mS0I-1" target="s3QYRCO0sytGGgx9mS0I-7">
          <mxGeometry relative="1" as="geometry" />
        </mxCell>
        <mxCell id="s3QYRCO0sytGGgx9mS0I-1" value="Cẩm nang dành cho tân sinh viên" style="rounded=1;whiteSpace=wrap;html=1;" vertex="1" parent="1">
          <mxGeometry x="303" y="50" width="200" height="60" as="geometry" />
        </mxCell>
        <mxCell id="s3QYRCO0sytGGgx9mS0I-3" value="Thu thập ý kiến" style="rounded=1;whiteSpace=wrap;html=1;" vertex="1" parent="1">
          <mxGeometry x="326" y="200" width="170" height="60" as="geometry" />
        </mxCell>
        <mxCell id="s3QYRCO0sytGGgx9mS0I-52" style="edgeStyle=orthogonalEdgeStyle;rounded=0;orthogonalLoop=1;jettySize=auto;html=1;exitX=0.25;exitY=1;exitDx=0;exitDy=0;entryX=0.703;entryY=-0.012;entryDx=0;entryDy=0;entryPerimeter=0;" edge="1" parent="1" source="s3QYRCO0sytGGgx9mS0I-7" target="s3QYRCO0sytGGgx9mS0I-27">
          <mxGeometry relative="1" as="geometry" />
        </mxCell>
        <mxCell id="s3QYRCO0sytGGgx9mS0I-53" style="edgeStyle=orthogonalEdgeStyle;rounded=0;orthogonalLoop=1;jettySize=auto;html=1;exitX=0.75;exitY=1;exitDx=0;exitDy=0;entryX=0.407;entryY=0;entryDx=0;entryDy=0;entryPerimeter=0;" edge="1" parent="1" source="s3QYRCO0sytGGgx9mS0I-7" target="s3QYRCO0sytGGgx9mS0I-23">
          <mxGeometry relative="1" as="geometry" />
        </mxCell>
        <mxCell id="s3QYRCO0sytGGgx9mS0I-7" value="Nắm bắt tình hình cuộc sống sinh hoạt hiện tại của tân sinh viên" style="whiteSpace=wrap;html=1;rounded=1;" vertex="1" parent="1">
          <mxGeometry x="83" y="200" width="180" height="60" as="geometry" />
        </mxCell>
        <mxCell id="s3QYRCO0sytGGgx9mS0I-10" value="Đúc kết thành cẩm nang" style="rounded=1;whiteSpace=wrap;html=1;" vertex="1" parent="1">
          <mxGeometry x="620" y="200" width="140" height="60" as="geometry" />
        </mxCell>
        <mxCell id="s3QYRCO0sytGGgx9mS0I-11" value="Khảo sát" style="rounded=1;whiteSpace=wrap;html=1;" vertex="1" parent="1">
          <mxGeometry x="326" y="340" width="170" height="60" as="geometry" />
        </mxCell>
        <mxCell id="s3QYRCO0sytGGgx9mS0I-18" value="Đối tượng" style="rounded=1;whiteSpace=wrap;html=1;" vertex="1" parent="1">
          <mxGeometry x="286" y="480" width="120" height="60" as="geometry" />
        </mxCell>
        <mxCell id="s3QYRCO0sytGGgx9mS0I-58" style="edgeStyle=orthogonalEdgeStyle;rounded=0;orthogonalLoop=1;jettySize=auto;html=1;exitX=0.25;exitY=1;exitDx=0;exitDy=0;" edge="1" parent="1" source="s3QYRCO0sytGGgx9mS0I-19" target="s3QYRCO0sytGGgx9mS0I-32">
          <mxGeometry relative="1" as="geometry">
            <Array as="points">
              <mxPoint x="480" y="540" />
              <mxPoint x="480" y="585" />
              <mxPoint x="440" y="585" />
            </Array>
          </mxGeometry>
        </mxCell>
        <mxCell id="s3QYRCO0sytGGgx9mS0I-59" style="edgeStyle=orthogonalEdgeStyle;rounded=0;orthogonalLoop=1;jettySize=auto;html=1;exitX=0.75;exitY=1;exitDx=0;exitDy=0;entryX=0.5;entryY=0;entryDx=0;entryDy=0;" edge="1" parent="1" source="s3QYRCO0sytGGgx9mS0I-19" target="s3QYRCO0sytGGgx9mS0I-34">
          <mxGeometry relative="1" as="geometry">
            <Array as="points">
              <mxPoint x="560" y="540" />
              <mxPoint x="560" y="585" />
              <mxPoint x="600" y="585" />
            </Array>
          </mxGeometry>
        </mxCell>
        <mxCell id="s3QYRCO0sytGGgx9mS0I-19" value="Hình thức" style="rounded=1;whiteSpace=wrap;html=1;" vertex="1" parent="1">
          <mxGeometry x="463" y="480" width="120" height="60" as="geometry" />
        </mxCell>
        <mxCell id="s3QYRCO0sytGGgx9mS0I-23" value="Nhìn nhận tình hình thực trạng" style="whiteSpace=wrap;html=1;rounded=1;" vertex="1" parent="1">
          <mxGeometry x="169" y="350" width="120" height="60" as="geometry" />
        </mxCell>
        <mxCell id="s3QYRCO0sytGGgx9mS0I-27" value="Đánh giá tình hình" style="rounded=1;whiteSpace=wrap;html=1;" vertex="1" parent="1">
          <mxGeometry x="43" y="350" width="120" height="60" as="geometry" />
        </mxCell>
        <mxCell id="s3QYRCO0sytGGgx9mS0I-32" value="Offline" style="whiteSpace=wrap;html=1;rounded=1;" vertex="1" parent="1">
          <mxGeometry x="383" y="630" width="120" height="60" as="geometry" />
        </mxCell>
        <mxCell id="s3QYRCO0sytGGgx9mS0I-34" value="Online" style="rounded=1;whiteSpace=wrap;html=1;" vertex="1" parent="1">
          <mxGeometry x="540" y="630" width="120" height="60" as="geometry" />
        </mxCell>
        <mxCell id="s3QYRCO0sytGGgx9mS0I-37" value="Địa điểm, thời gian" style="whiteSpace=wrap;html=1;rounded=1;" vertex="1" parent="1">
          <mxGeometry x="164" y="770" width="120" height="60" as="geometry" />
        </mxCell>
        <mxCell id="s3QYRCO0sytGGgx9mS0I-39" value="Đạo cụ" style="rounded=1;whiteSpace=wrap;html=1;" vertex="1" parent="1">
          <mxGeometry x="304" y="770" width="120" height="60" as="geometry" />
        </mxCell>
        <mxCell id="s3QYRCO0sytGGgx9mS0I-42" value="Câu hỏi phỏng vấn" style="rounded=1;whiteSpace=wrap;html=1;" vertex="1" parent="1">
          <mxGeometry x="444" y="770" width="120" height="60" as="geometry" />
        </mxCell>
        <mxCell id="s3QYRCO0sytGGgx9mS0I-44" value="Làm form" style="rounded=1;whiteSpace=wrap;html=1;" vertex="1" parent="1">
          <mxGeometry x="584" y="770" width="120" height="60" as="geometry" />
        </mxCell>
        <mxCell id="s3QYRCO0sytGGgx9mS0I-45" value="Truyền thông" style="rounded=1;whiteSpace=wrap;html=1;" vertex="1" parent="1">
          <mxGeometry x="724" y="770" width="120" height="60" as="geometry" />
        </mxCell>
        <mxCell id="s3QYRCO0sytGGgx9mS0I-47" value="Tổng hợp ý kiến" style="rounded=1;whiteSpace=wrap;html=1;" vertex="1" parent="1">
          <mxGeometry x="550" y="290" width="120" height="60" as="geometry" />
        </mxCell>
        <mxCell id="s3QYRCO0sytGGgx9mS0I-48" value="Đánh giá ý kiến" style="rounded=1;whiteSpace=wrap;html=1;" vertex="1" parent="1">
          <mxGeometry x="710" y="290" width="120" height="60" as="geometry" />
        </mxCell>
        <mxCell id="s3QYRCO0sytGGgx9mS0I-55" value="" style="endArrow=classic;html=1;rounded=0;exitX=0.5;exitY=1;exitDx=0;exitDy=0;" edge="1" parent="1" source="s3QYRCO0sytGGgx9mS0I-3" target="s3QYRCO0sytGGgx9mS0I-11">
          <mxGeometry width="50" height="50" relative="1" as="geometry">
            <mxPoint x="200" y="410" as="sourcePoint" />
            <mxPoint x="250" y="360" as="targetPoint" />
          </mxGeometry>
        </mxCell>
        <mxCell id="s3QYRCO0sytGGgx9mS0I-56" value="" style="endArrow=classic;html=1;rounded=0;entryX=0.5;entryY=0;entryDx=0;entryDy=0;exitX=0.25;exitY=1;exitDx=0;exitDy=0;" edge="1" parent="1" source="s3QYRCO0sytGGgx9mS0I-11" target="s3QYRCO0sytGGgx9mS0I-18">
          <mxGeometry width="50" height="50" relative="1" as="geometry">
            <mxPoint x="200" y="510" as="sourcePoint" />
            <mxPoint x="250" y="460" as="targetPoint" />
          </mxGeometry>
        </mxCell>
        <mxCell id="s3QYRCO0sytGGgx9mS0I-57" value="" style="endArrow=classic;html=1;rounded=0;entryX=0.5;entryY=0;entryDx=0;entryDy=0;exitX=0.75;exitY=1;exitDx=0;exitDy=0;" edge="1" parent="1" source="s3QYRCO0sytGGgx9mS0I-11" target="s3QYRCO0sytGGgx9mS0I-19">
          <mxGeometry width="50" height="50" relative="1" as="geometry">
            <mxPoint x="378.5" y="410" as="sourcePoint" />
            <mxPoint x="356" y="490" as="targetPoint" />
          </mxGeometry>
        </mxCell>
        <mxCell id="s3QYRCO0sytGGgx9mS0I-60" value="" style="endArrow=classic;html=1;rounded=0;exitX=0.5;exitY=1;exitDx=0;exitDy=0;entryX=0.5;entryY=0;entryDx=0;entryDy=0;" edge="1" parent="1" source="s3QYRCO0sytGGgx9mS0I-32" target="s3QYRCO0sytGGgx9mS0I-42">
          <mxGeometry width="50" height="50" relative="1" as="geometry">
            <mxPoint x="430" y="780" as="sourcePoint" />
            <mxPoint x="480" y="730" as="targetPoint" />
          </mxGeometry>
        </mxCell>
        <mxCell id="s3QYRCO0sytGGgx9mS0I-61" value="" style="endArrow=classic;html=1;rounded=0;exitX=0.5;exitY=1;exitDx=0;exitDy=0;entryX=0.5;entryY=0;entryDx=0;entryDy=0;" edge="1" parent="1" source="s3QYRCO0sytGGgx9mS0I-34" target="s3QYRCO0sytGGgx9mS0I-42">
          <mxGeometry width="50" height="50" relative="1" as="geometry">
            <mxPoint x="430" y="780" as="sourcePoint" />
            <mxPoint x="500" y="770" as="targetPoint" />
          </mxGeometry>
        </mxCell>
        <mxCell id="s3QYRCO0sytGGgx9mS0I-62" value="" style="endArrow=classic;html=1;rounded=0;exitX=0.5;exitY=1;exitDx=0;exitDy=0;entryX=0.5;entryY=0;entryDx=0;entryDy=0;" edge="1" parent="1" target="s3QYRCO0sytGGgx9mS0I-44">
          <mxGeometry width="50" height="50" relative="1" as="geometry">
            <mxPoint x="613.5" y="690" as="sourcePoint" />
            <mxPoint x="674.4999999999998" y="770" as="targetPoint" />
          </mxGeometry>
        </mxCell>
        <mxCell id="s3QYRCO0sytGGgx9mS0I-63" value="" style="endArrow=classic;html=1;rounded=0;exitX=1;exitY=1;exitDx=0;exitDy=0;entryX=0.5;entryY=0;entryDx=0;entryDy=0;" edge="1" parent="1" source="s3QYRCO0sytGGgx9mS0I-34">
          <mxGeometry width="50" height="50" relative="1" as="geometry">
            <mxPoint x="720" y="690" as="sourcePoint" />
            <mxPoint x="780.9999999999998" y="770" as="targetPoint" />
          </mxGeometry>
        </mxCell>
        <mxCell id="s3QYRCO0sytGGgx9mS0I-64" value="" style="endArrow=classic;html=1;rounded=0;entryX=0.5;entryY=0;entryDx=0;entryDy=0;" edge="1" parent="1" target="s3QYRCO0sytGGgx9mS0I-39">
          <mxGeometry width="50" height="50" relative="1" as="geometry">
            <mxPoint x="430" y="690" as="sourcePoint" />
            <mxPoint x="513.9999999999998" y="780" as="targetPoint" />
          </mxGeometry>
        </mxCell>
        <mxCell id="s3QYRCO0sytGGgx9mS0I-65" value="" style="endArrow=classic;html=1;rounded=0;exitX=0.25;exitY=1;exitDx=0;exitDy=0;entryX=0.5;entryY=0;entryDx=0;entryDy=0;" edge="1" parent="1" source="s3QYRCO0sytGGgx9mS0I-32" target="s3QYRCO0sytGGgx9mS0I-37">
          <mxGeometry width="50" height="50" relative="1" as="geometry">
            <mxPoint x="620" y="710" as="sourcePoint" />
            <mxPoint x="523.9999999999998" y="790" as="targetPoint" />
          </mxGeometry>
        </mxCell>
        <mxCell id="s3QYRCO0sytGGgx9mS0I-69" value="" style="endArrow=classic;html=1;rounded=0;exitX=0.25;exitY=1;exitDx=0;exitDy=0;entryX=0.5;entryY=0;entryDx=0;entryDy=0;" edge="1" parent="1" source="s3QYRCO0sytGGgx9mS0I-10" target="s3QYRCO0sytGGgx9mS0I-47">
          <mxGeometry width="50" height="50" relative="1" as="geometry">
            <mxPoint x="490" y="350" as="sourcePoint" />
            <mxPoint x="540" y="300" as="targetPoint" />
          </mxGeometry>
        </mxCell>
        <mxCell id="s3QYRCO0sytGGgx9mS0I-70" value="" style="endArrow=classic;html=1;rounded=0;exitX=0.75;exitY=1;exitDx=0;exitDy=0;entryX=0.5;entryY=0;entryDx=0;entryDy=0;" edge="1" parent="1" source="s3QYRCO0sytGGgx9mS0I-10" target="s3QYRCO0sytGGgx9mS0I-48">
          <mxGeometry width="50" height="50" relative="1" as="geometry">
            <mxPoint x="490" y="350" as="sourcePoint" />
            <mxPoint x="540" y="300" as="targetPoint" />
          </mxGeometry>
        </mxCell>
      </root>
    </mxGraphModel>
  </diagram>
</mxfile>
